<svg xmlns="http://www.w3.org/2000/svg" xmlns:xlink="http://www.w3.org/1999/xlink" width="500" zoomAndPan="magnify" viewBox="0 0 375 374.999991" height="500" preserveAspectRatio="xMidYMid meet" version="1.0"><defs><g/><clipPath id="bba97a1617"><path d="M 200.101562 75.597656 L 290.179688 75.597656 L 290.179688 137 L 200.101562 137 Z M 200.101562 75.597656 " clip-rule="nonzero"/></clipPath></defs><g clip-path="url(#bba97a1617)"><path fill="#ab8262" d="M 285.882812 88.296875 C 291.660156 96.5 291.0625 107.589844 287.3125 114.886719 C 283.757812 122.554688 277.203125 127.972656 270.980469 130.914062 C 258.296875 136.78125 246.914062 136.761719 237.730469 136.976562 C 219.363281 136.601562 208.328125 135.679688 208.261719 135.953125 C 208.113281 135.707031 219.292969 132.65625 236.871094 129.160156 C 245.433594 127.179688 256.039062 124.789062 264.539062 119.328125 C 272.875 114.398438 277.480469 103.457031 272.8125 97.019531 C 268.371094 89.941406 256.269531 89.078125 246.738281 92.757812 C 236.808594 96.269531 228.503906 102.527344 221.871094 108.246094 C 208.746094 120.167969 200.4375 128.246094 200.34375 128.042969 C 200.566406 128.097656 205.390625 118.0625 216.105469 102.902344 C 221.683594 95.515625 229.4375 86.679688 241.496094 80.574219 C 247.507812 77.628906 254.828125 75.292969 263.011719 75.835938 C 270.96875 76.226562 280.421875 79.992188 285.882812 88.296875 " fill-opacity="1" fill-rule="nonzero"/></g><path fill="#ab8262" d="M 217.707031 67.476562 C 222.847656 69.34375 226.039062 74.5 226.632812 78.9375 C 227.417969 83.472656 226.179688 87.960938 224.3125 91.214844 C 220.449219 97.800781 215.335938 101.339844 211.289062 104.296875 C 202.949219 109.855469 197.710938 112.878906 197.761719 113.019531 C 197.625 112.964844 201.683594 108.101562 208.484375 101.0625 C 211.695312 97.507812 215.699219 93.125 217.804688 88.03125 C 220.019531 83.222656 218.667969 76.882812 214.574219 75.453125 C 210.378906 73.664062 204.679688 77.050781 201.554688 81.675781 C 198.199219 86.332031 196.429688 91.730469 195.230469 96.359375 C 193.066406 105.800781 191.859375 112 191.753906 111.945312 C 191.875 111.902344 190.898438 105.898438 190.984375 95.765625 C 191.1875 90.714844 191.902344 84.339844 195.414062 77.835938 C 197.183594 74.644531 199.738281 71.320312 203.578125 69.007812 C 207.253906 66.703125 212.667969 65.449219 217.707031 67.476562 " fill-opacity="1" fill-rule="nonzero"/><path fill="#ab8262" d="M 96.078125 107.234375 C 94.65625 112.589844 95.996094 117.757812 99.457031 121.863281 C 103.125 126.257812 108.464844 129.410156 114.214844 131.5625 C 125.871094 135.820312 138.242188 136.695312 148.410156 137.164062 C 169.007812 137.703125 182.191406 136.5625 182.160156 136.738281 C 182.105469 136.5625 170.011719 141.554688 148.875 145.019531 C 138.296875 146.46875 125.269531 147.867188 110.304688 144.238281 C 102.933594 142.328125 94.796875 138.773438 88.300781 131.953125 C 81.472656 125.132812 77.9375 113.496094 80.847656 103.328125 C 83.433594 93.105469 91.171875 84.871094 100.097656 81.355469 C 109.046875 77.671875 118.230469 78.285156 125.675781 80.121094 C 140.625 84.183594 151.421875 91.570312 159.8125 98.609375 C 176.101562 113.132812 181.855469 125.132812 182.160156 124.878906 C 181.996094 125.214844 172.695312 115.410156 155.261719 105.007812 C 146.664062 100.101562 135.21875 94.988281 123.109375 93.132812 C 111.132812 91.015625 98.851562 96.042969 96.078125 107.234375 " fill-opacity="1" fill-rule="nonzero"/><path fill="#ab8262" d="M 159.183594 60.625 C 156.28125 62.320312 154.628906 65.121094 154.363281 68.375 C 154.035156 71.835938 154.984375 75.503906 156.535156 78.902344 C 159.714844 85.746094 164.652344 91.453125 168.832031 96.023438 C 177.46875 105.117188 183.625 110.300781 183.539062 110.371094 C 183.589844 110.273438 176.238281 107.207031 165.648438 99.597656 C 160.480469 95.667969 154.273438 90.671875 149.390625 82.667969 C 147.035156 78.679688 145.066406 73.648438 145.210938 67.90625 C 145.210938 62.039062 148.691406 55.503906 154.320312 52.394531 C 159.824219 49.105469 166.703125 48.886719 172.050781 51.214844 C 177.492188 53.492188 181.171875 57.703125 183.589844 61.691406 C 188.269531 69.886719 189.746094 77.710938 190.324219 84.339844 C 191.09375 97.605469 188.40625 105.242188 188.636719 105.273438 C 188.433594 105.339844 188.625 97.117188 185.617188 85.132812 C 184.027344 79.320312 181.296875 72.199219 176.878906 66.195312 C 172.644531 60.117188 165.191406 57 159.183594 60.625 " fill-opacity="1" fill-rule="nonzero"/><path fill="#ab8262" d="M 270.515625 162.785156 C 197.128906 162.363281 138.5625 154.0625 138.5625 154.0625 C 138.5625 154.0625 200.25 145.324219 276.3125 145.324219 L 279.203125 145.324219 C 279.203125 145.324219 281.832031 145.371094 285.054688 148.597656 C 288.140625 153.101562 287.976562 154.097656 287.976562 154.097656 L 287.976562 154.144531 L 287.933594 158.242188 L 287.863281 165.238281 C 287.792969 169.867188 287.714844 174.4375 287.585938 178.910156 C 287.359375 187.886719 287.011719 196.53125 286.609375 204.777344 C 285.785156 221.261719 284.699219 236.105469 283.597656 248.570312 C 281.410156 273.496094 279.222656 288.925781 279.222656 288.925781 C 279.222656 288.925781 277.050781 273.496094 274.859375 248.570312 C 273.769531 236.105469 272.683594 221.261719 271.851562 204.777344 C 271.441406 196.53125 271.105469 187.886719 270.863281 178.910156 C 270.753906 174.4375 270.65625 169.867188 270.585938 165.238281 C 270.585938 165.238281 271.019531 163.289062 270.515625 162.785156 " fill-opacity="1" fill-rule="nonzero"/><path fill="#ab8262" d="M 124.851562 308.503906 C 198.226562 308.929688 256.804688 317.238281 256.804688 317.238281 C 256.804688 317.238281 195.125 325.972656 119.042969 325.972656 L 117.269531 325.972656 L 116.15625 325.96875 C 116.15625 325.96875 113.539062 325.925781 110.308594 322.691406 C 107.226562 318.191406 107.40625 317.203125 107.40625 317.203125 L 107.40625 317.144531 L 107.421875 313.0625 L 107.488281 306.058594 C 107.558594 301.425781 107.652344 296.867188 107.769531 292.375 C 108.007812 283.421875 108.339844 274.757812 108.757812 266.523438 C 109.578125 250.035156 110.667969 235.1875 111.769531 222.726562 C 113.949219 197.796875 116.136719 182.375 116.136719 182.375 C 116.136719 182.375 118.316406 197.796875 120.503906 222.726562 C 121.597656 235.1875 122.691406 250.035156 123.503906 266.523438 C 123.917969 274.757812 124.257812 283.421875 124.496094 292.375 C 124.613281 296.867188 124.710938 301.425781 124.773438 306.058594 C 124.773438 306.058594 124.347656 308.003906 124.851562 308.503906 " fill-opacity="1" fill-rule="nonzero"/><g fill="#ab8262" fill-opacity="1"><g transform="translate(146.287349, 226.60998)"><g><path d="M 0.71875 -9.527344 C 0.71875 -3.855469 5.726562 0.433594 11.253906 0.433594 C 16.78125 0.433594 19.226562 -3.484375 19.226562 -5.671875 C 19.226562 -6.160156 18.96875 -6.273438 18.769531 -6.273438 C 18.191406 -6.273438 17.761719 -4.777344 15.027344 -4.777344 C 10.792969 -4.777344 3.828125 -9.699219 3.828125 -14.390625 C 3.828125 -16.121094 4.722656 -17.386719 6.390625 -17.386719 C 8.261719 -17.386719 10.105469 -15.917969 11.285156 -14.25 C 12.261719 -12.867188 11.945312 -11.832031 12.636719 -11.832031 C 13.070312 -11.832031 14.621094 -13.328125 15.832031 -14.390625 C 16.867188 -15.3125 18.191406 -16.320312 18.191406 -17.070312 C 18.191406 -18.453125 14.421875 -20.582031 11.3125 -20.582031 C 4.117188 -20.582031 0.71875 -15.515625 0.71875 -9.527344 Z M 0.71875 -9.527344 "/></g></g></g><g fill="#ab8262" fill-opacity="1"><g transform="translate(166.088797, 226.60998)"><g><path d="M 0.71875 -4.492188 C 0.71875 -1.726562 3.050781 0.433594 5.84375 0.433594 C 9.960938 0.433594 10.792969 -2.246094 12.003906 -2.246094 C 12.433594 -2.246094 12.664062 -1.726562 12.75 -1.238281 C 12.894531 -0.460938 13.386719 0 14.25 0 L 21.300781 0 C 20.523438 -0.777344 20.292969 -1.757812 20.292969 -3.398438 L 20.292969 -11.945312 C 20.292969 -16.0625 17.183594 -20.582031 10.5625 -20.582031 C 7.511719 -20.582031 4.492188 -20.148438 2.53125 -18.277344 C 1.785156 -17.585938 1.957031 -16.550781 1.957031 -15.574219 L 1.957031 -13.988281 C 1.957031 -13.5 2.390625 -13.070312 2.851562 -13.070312 C 4.632812 -13.070312 6.503906 -18.941406 10.132812 -19 C 12.261719 -19.027344 12.636719 -17.355469 12.636719 -16.089844 C 12.636719 -15.574219 12.433594 -14.996094 11.601562 -14.824219 C 6.1875 -13.703125 0.71875 -10.621094 0.71875 -4.492188 Z M 11.601562 -12.953125 C 12.378906 -12.953125 12.636719 -12.464844 12.636719 -11.167969 C 12.636719 -9.382812 12.664062 -8.320312 12.664062 -6.503906 C 12.664062 -4.632812 11.886719 -3.222656 10.332031 -3.222656 C 8.203125 -3.222656 7.597656 -5.179688 7.597656 -7.195312 C 7.597656 -10.738281 9.730469 -12.953125 11.601562 -12.953125 Z M 11.601562 -12.953125 "/></g></g></g><g fill="#ab8262" fill-opacity="1"><g transform="translate(187.530766, 226.60998)"><g><path d="M 0.289062 0 L 9.929688 0 C 9.152344 -0.777344 8.921875 -1.757812 8.921875 -3.398438 L 8.921875 -11.226562 C 8.921875 -12.808594 9.269531 -14.996094 11.6875 -14.996094 C 14.480469 -14.996094 14.164062 -12.464844 15.398438 -12.464844 C 15.917969 -12.464844 16.582031 -13.988281 17.386719 -15.574219 C 18.105469 -17.011719 18.941406 -18.507812 18.941406 -18.855469 C 18.941406 -19.976562 16.867188 -20.582031 15.34375 -20.582031 C 10.824219 -20.582031 10.132812 -16.582031 9.125 -16.582031 C 9.007812 -16.582031 8.921875 -16.582031 8.921875 -17.269531 L 8.921875 -17.761719 C 8.921875 -19.226562 8.578125 -20.148438 7.339844 -20.148438 L 0.289062 -20.148438 C 1.066406 -19.371094 1.296875 -18.394531 1.296875 -16.753906 L 1.296875 -3.398438 C 1.296875 -1.757812 1.066406 -0.777344 0.289062 0 Z M 0.289062 0 "/></g></g></g><g fill="#ab8262" fill-opacity="1"><g transform="translate(206.756587, 226.60998)"><g><path d="M 8.867188 0.433594 C 10.363281 0.433594 12.117188 -0.0585938 13.644531 -2.53125 C 13.84375 -2.851562 14.164062 -3.050781 14.164062 -2.648438 L 14.164062 -2.359375 C 14.164062 -0.890625 14.507812 0 15.746094 0 L 22.796875 0 C 22.019531 -0.777344 21.789062 -1.757812 21.789062 -3.398438 L 21.789062 -28.09375 C 21.789062 -28.667969 21.761719 -29.214844 20.925781 -29.214844 C 19.226562 -29.214844 13.960938 -26.570312 12.808594 -26.078125 C 12.75 -26.050781 12.492188 -25.992188 12.492188 -25.703125 C 12.492188 -25.359375 12.839844 -25.332031 12.925781 -25.300781 C 14.277344 -24.839844 14.164062 -23.429688 14.164062 -23.085938 L 14.164062 -19.054688 C 14.164062 -18.335938 13.816406 -18.308594 13.703125 -18.308594 C 13.125 -18.308594 12.0625 -20.582031 8.867188 -20.582031 C 3.195312 -20.582031 0.71875 -14.851562 0.71875 -9.671875 C 0.71875 -4.085938 3.683594 0.433594 8.867188 0.433594 Z M 12.089844 -17.558594 C 13.875 -17.558594 14.164062 -14.796875 14.164062 -13.328125 L 14.164062 -7.714844 C 14.164062 -6.132812 13.933594 -3.167969 11.628906 -3.167969 C 8.433594 -3.167969 8.320312 -7.140625 8.320312 -10.476562 C 8.320312 -13.617188 8.894531 -17.558594 12.089844 -17.558594 Z M 12.089844 -17.558594 "/></g></g></g><g fill="#ab8262" fill-opacity="1"><g transform="translate(229.69518, 226.60998)"><g><path d="M 0.433594 -14.390625 C 0.433594 -8.75 6.503906 -6.910156 11.167969 -6.910156 C 13.355469 -6.910156 15.054688 -7.28125 16.121094 -7.28125 C 16.898438 -7.28125 17.328125 -7.082031 17.328125 -6.390625 C 17.328125 -4.894531 15.257812 -3.742188 13.269531 -3.742188 C 8.003906 -3.742188 5.066406 -7.542969 3.339844 -7.542969 C 2.160156 -7.542969 0.574219 -3.398438 0.574219 -2.160156 C 0.574219 -0.691406 6.304688 0.433594 10.246094 0.433594 C 13.5 0.433594 18.882812 -1.207031 18.882812 -6.535156 C 18.882812 -12.089844 13.210938 -13.585938 8.117188 -14.480469 C 5.699219 -14.910156 3.769531 -15.488281 3.769531 -16.898438 C 3.769531 -18.335938 5.066406 -18.882812 6.074219 -18.882812 C 9.671875 -18.882812 12.433594 -13.210938 16.261719 -13.210938 C 17.300781 -13.210938 18.941406 -15.199219 18.941406 -17.128906 C 18.941406 -18.796875 14.765625 -20.582031 9.699219 -20.582031 C 5.355469 -20.582031 0.433594 -19.199219 0.433594 -14.390625 Z M 0.433594 -14.390625 "/></g></g></g><g fill="#ab8262" fill-opacity="1"><g transform="translate(172.408441, 252.859978)"><g><path d="M 7.515625 0 C 6.925781 -0.589844 6.75 -1.328125 6.75 -2.570312 L 6.75 -14.15625 L 8.820312 -14.15625 L 8.820312 -15.246094 L 6.011719 -15.246094 C 4.160156 -15.246094 2.851562 -17.011719 2.851562 -18.449219 C 2.851562 -19.101562 3.417969 -19.449219 3.921875 -19.449219 C 6.097656 -19.449219 7.992188 -16.683594 9.386719 -16.683594 C 9.84375 -16.683594 10.019531 -17.292969 10.367188 -18.035156 C 10.738281 -18.796875 11.152344 -19.710938 11.152344 -20.472656 C 11.152344 -21.367188 8.84375 -22.105469 7.144531 -22.105469 C 2.679688 -22.105469 0.980469 -18.949219 0.980469 -15.484375 L 0.980469 -2.570312 C 0.980469 -1.328125 0.804688 -0.589844 0.21875 0 Z M 7.515625 0 "/></g></g></g><g fill="#ab8262" fill-opacity="1"><g transform="translate(183.991921, 252.859978)"><g><path d="M 2.765625 -1.917969 C 4.246094 -0.414062 6.183594 0.328125 8.167969 0.328125 C 10.191406 0.328125 12.261719 -0.480469 13.851562 -2.089844 C 16.964844 -5.25 17.054688 -10.257812 14.027344 -13.308594 C 12.546875 -14.808594 10.605469 -15.550781 8.625 -15.550781 C 6.597656 -15.550781 4.53125 -14.746094 2.941406 -13.15625 C -0.195312 -9.996094 -0.261719 -4.988281 2.765625 -1.917969 Z M 7.339844 -14.398438 C 8.753906 -14.613281 10.367188 -11.738281 10.933594 -7.972656 C 11.5 -4.136719 10.824219 -0.9375 9.429688 -0.71875 C 8.015625 -0.5 6.402344 -3.355469 5.816406 -7.144531 C 5.226562 -10.957031 5.902344 -14.179688 7.339844 -14.398438 Z M 7.339844 -14.398438 "/></g></g></g><g fill="#ab8262" fill-opacity="1"><g transform="translate(200.779258, 252.859978)"><g><path d="M 0.21875 0 L 7.515625 0 C 6.925781 -0.589844 6.75 -1.328125 6.75 -2.570312 L 6.75 -8.496094 C 6.75 -9.691406 7.011719 -11.347656 8.84375 -11.347656 C 10.957031 -11.347656 10.714844 -9.429688 11.652344 -9.429688 C 12.042969 -9.429688 12.546875 -10.585938 13.15625 -11.78125 C 13.699219 -12.871094 14.332031 -14.003906 14.332031 -14.265625 C 14.332031 -15.117188 12.761719 -15.574219 11.609375 -15.574219 C 8.1875 -15.574219 7.667969 -12.546875 6.902344 -12.546875 C 6.816406 -12.546875 6.75 -12.546875 6.75 -13.066406 L 6.75 -13.4375 C 6.75 -14.550781 6.492188 -15.246094 5.554688 -15.246094 L 0.21875 -15.246094 C 0.804688 -14.65625 0.980469 -13.917969 0.980469 -12.675781 L 0.980469 -2.570312 C 0.980469 -1.328125 0.804688 -0.589844 0.21875 0 Z M 0.21875 0 "/></g></g></g><g fill="#ab8262" fill-opacity="1"><g transform="translate(215.334219, 252.859978)"><g/></g></g><g fill="#ab8262" fill-opacity="1"><g transform="translate(123.752194, 277.609976)"><g><path d="M 0.542969 -7.210938 C 0.542969 -2.917969 4.335938 0.328125 8.515625 0.328125 C 12.699219 0.328125 14.550781 -2.636719 14.550781 -4.289062 C 14.550781 -4.660156 14.351562 -4.746094 14.199219 -4.746094 C 13.765625 -4.746094 13.4375 -3.617188 11.371094 -3.617188 C 8.863281 -3.617188 5.359375 -5.859375 5.359375 -6.644531 C 5.359375 -7.011719 5.640625 -6.992188 5.859375 -6.992188 C 9.691406 -6.992188 14.441406 -6.140625 14.441406 -9.757812 C 14.441406 -12.761719 12.242188 -15.574219 8.363281 -15.574219 C 3.265625 -15.574219 0.542969 -11.980469 0.542969 -7.210938 Z M 2.984375 -11.195312 C 2.984375 -12.4375 4.269531 -13.199219 5.488281 -13.199219 C 7.316406 -13.199219 9.933594 -11.933594 9.933594 -9.671875 C 9.933594 -8.210938 7.515625 -8.035156 5.464844 -8.035156 C 3.703125 -8.035156 2.984375 -9.648438 2.984375 -11.195312 Z M 2.984375 -11.195312 "/></g></g></g><g fill="#ab8262" fill-opacity="1"><g transform="translate(138.732338, 277.609976)"><g><path d="M 1.851562 -10.890625 C 2.59375 -8.40625 2.960938 -7.230469 3.484375 -5.183594 C 4.050781 -2.984375 4.683594 0 6.46875 0 L 11.238281 0 C 11.847656 0 12.480469 0.0234375 12.9375 -1.308594 C 14.503906 -5.835938 16.378906 -10.671875 16.378906 -12.785156 C 16.378906 -14.199219 15.726562 -15.574219 14.003906 -15.574219 C 11.738281 -15.574219 8.953125 -13.984375 8.953125 -12.609375 C 8.953125 -11.5 12.894531 -11.957031 12.894531 -6.402344 C 12.894531 -3.964844 12.089844 -1.4375 11.324219 -1.4375 C 10.257812 -1.4375 8.953125 -7.121094 7.949219 -10.890625 C 7.515625 -12.546875 7.101562 -14.027344 7.621094 -15.246094 L 0 -15.246094 C 0.914062 -14.441406 1.328125 -12.652344 1.851562 -10.890625 Z M 1.851562 -10.890625 "/></g></g></g><g fill="#ab8262" fill-opacity="1"><g transform="translate(155.650309, 277.609976)"><g><path d="M 0.542969 -7.210938 C 0.542969 -2.917969 4.335938 0.328125 8.515625 0.328125 C 12.699219 0.328125 14.550781 -2.636719 14.550781 -4.289062 C 14.550781 -4.660156 14.351562 -4.746094 14.199219 -4.746094 C 13.765625 -4.746094 13.4375 -3.617188 11.371094 -3.617188 C 8.863281 -3.617188 5.359375 -5.859375 5.359375 -6.644531 C 5.359375 -7.011719 5.640625 -6.992188 5.859375 -6.992188 C 9.691406 -6.992188 14.441406 -6.140625 14.441406 -9.757812 C 14.441406 -12.761719 12.242188 -15.574219 8.363281 -15.574219 C 3.265625 -15.574219 0.542969 -11.980469 0.542969 -7.210938 Z M 2.984375 -11.195312 C 2.984375 -12.4375 4.269531 -13.199219 5.488281 -13.199219 C 7.316406 -13.199219 9.933594 -11.933594 9.933594 -9.671875 C 9.933594 -8.210938 7.515625 -8.035156 5.464844 -8.035156 C 3.703125 -8.035156 2.984375 -9.648438 2.984375 -11.195312 Z M 2.984375 -11.195312 "/></g></g></g><g fill="#ab8262" fill-opacity="1"><g transform="translate(170.630453, 277.609976)"><g><path d="M 0.21875 0 L 7.515625 0 C 6.925781 -0.589844 6.75 -1.328125 6.75 -2.570312 L 6.75 -8.496094 C 6.75 -9.691406 7.011719 -11.347656 8.84375 -11.347656 C 10.957031 -11.347656 10.714844 -9.429688 11.652344 -9.429688 C 12.042969 -9.429688 12.546875 -10.585938 13.15625 -11.78125 C 13.699219 -12.871094 14.332031 -14.003906 14.332031 -14.265625 C 14.332031 -15.117188 12.761719 -15.574219 11.609375 -15.574219 C 8.1875 -15.574219 7.667969 -12.546875 6.902344 -12.546875 C 6.816406 -12.546875 6.75 -12.546875 6.75 -13.066406 L 6.75 -13.4375 C 6.75 -14.550781 6.492188 -15.246094 5.554688 -15.246094 L 0.21875 -15.246094 C 0.804688 -14.65625 0.980469 -13.917969 0.980469 -12.675781 L 0.980469 -2.570312 C 0.980469 -1.328125 0.804688 -0.589844 0.21875 0 Z M 0.21875 0 "/></g></g></g><g fill="#ab8262" fill-opacity="1"><g transform="translate(185.175126, 277.609976)"><g><path d="M 1.851562 -10.890625 C 2.59375 -8.40625 3.003906 -7.253906 3.59375 -5.183594 C 4.203125 -3.003906 4.683594 0 6.46875 0 L 10.214844 0 C 10.652344 0 11.042969 0.0664062 11.042969 0.457031 C 11.042969 0.9375 10.214844 2.199219 8.210938 2.199219 C 6.707031 2.199219 5.925781 1.351562 5.25 1.351562 C 4.8125 1.351562 4.464844 2.460938 4.117188 3.550781 C 3.832031 4.421875 3.550781 5.117188 3.550781 5.574219 C 3.550781 6.183594 5.335938 6.859375 6.644531 6.859375 C 9.824219 6.859375 10.824219 4.074219 12.242188 0.675781 C 13.9375 -4.289062 16.378906 -10.367188 16.378906 -12.785156 C 16.378906 -14.199219 15.726562 -15.574219 14.003906 -15.574219 C 11.738281 -15.574219 8.953125 -13.984375 8.953125 -12.609375 C 8.953125 -11.5 12.894531 -11.957031 12.894531 -6.402344 C 12.894531 -3.964844 12.089844 -1.4375 11.324219 -1.4375 C 10.257812 -1.4375 8.953125 -7.121094 7.949219 -10.890625 C 7.515625 -12.546875 7.101562 -14.027344 7.621094 -15.246094 L 0 -15.246094 C 0.914062 -14.441406 1.328125 -12.652344 1.851562 -10.890625 Z M 1.851562 -10.890625 "/></g></g></g><g fill="#ab8262" fill-opacity="1"><g transform="translate(202.093098, 277.609976)"><g><path d="M 2.765625 -1.917969 C 4.246094 -0.414062 6.183594 0.328125 8.167969 0.328125 C 10.191406 0.328125 12.261719 -0.480469 13.851562 -2.089844 C 16.964844 -5.25 17.054688 -10.257812 14.027344 -13.308594 C 12.546875 -14.808594 10.605469 -15.550781 8.625 -15.550781 C 6.597656 -15.550781 4.53125 -14.746094 2.941406 -13.15625 C -0.195312 -9.996094 -0.261719 -4.988281 2.765625 -1.917969 Z M 7.339844 -14.398438 C 8.753906 -14.613281 10.367188 -11.738281 10.933594 -7.972656 C 11.5 -4.136719 10.824219 -0.9375 9.429688 -0.71875 C 8.015625 -0.5 6.402344 -3.355469 5.816406 -7.144531 C 5.226562 -10.957031 5.902344 -14.179688 7.339844 -14.398438 Z M 7.339844 -14.398438 "/></g></g></g><g fill="#ab8262" fill-opacity="1"><g transform="translate(218.880435, 277.609976)"><g><path d="M 7.515625 0 C 6.925781 -0.589844 6.75 -1.328125 6.75 -2.570312 L 6.75 -8.496094 C 6.75 -10.910156 7.667969 -11.585938 8.667969 -11.585938 C 9.625 -11.585938 9.910156 -10.652344 9.910156 -9.648438 L 9.910156 -2.570312 C 9.910156 -1.328125 9.734375 -0.589844 9.148438 0 L 16.445312 0 C 15.855469 -0.589844 15.679688 -1.328125 15.679688 -2.570312 L 15.679688 -6.292969 L 15.660156 -10.453125 C 15.660156 -12.71875 15.117188 -15.574219 11.933594 -15.574219 C 8.253906 -15.574219 7.796875 -12.546875 6.902344 -12.546875 C 6.816406 -12.546875 6.75 -12.546875 6.75 -13.066406 L 6.75 -13.4375 C 6.75 -14.550781 6.492188 -15.246094 5.554688 -15.246094 L 0.21875 -15.246094 C 0.804688 -14.65625 0.980469 -13.917969 0.980469 -12.675781 L 0.980469 -2.570312 C 0.980469 -1.328125 0.804688 -0.589844 0.21875 0 Z M 7.515625 0 "/></g></g></g><g fill="#ab8262" fill-opacity="1"><g transform="translate(235.428259, 277.609976)"><g><path d="M 0.542969 -7.210938 C 0.542969 -2.917969 4.335938 0.328125 8.515625 0.328125 C 12.699219 0.328125 14.550781 -2.636719 14.550781 -4.289062 C 14.550781 -4.660156 14.351562 -4.746094 14.199219 -4.746094 C 13.765625 -4.746094 13.4375 -3.617188 11.371094 -3.617188 C 8.863281 -3.617188 5.359375 -5.859375 5.359375 -6.644531 C 5.359375 -7.011719 5.640625 -6.992188 5.859375 -6.992188 C 9.691406 -6.992188 14.441406 -6.140625 14.441406 -9.757812 C 14.441406 -12.761719 12.242188 -15.574219 8.363281 -15.574219 C 3.265625 -15.574219 0.542969 -11.980469 0.542969 -7.210938 Z M 2.984375 -11.195312 C 2.984375 -12.4375 4.269531 -13.199219 5.488281 -13.199219 C 7.316406 -13.199219 9.933594 -11.933594 9.933594 -9.671875 C 9.933594 -8.210938 7.515625 -8.035156 5.464844 -8.035156 C 3.703125 -8.035156 2.984375 -9.648438 2.984375 -11.195312 Z M 2.984375 -11.195312 "/></g></g></g><g fill="#ab8262" fill-opacity="1"><g transform="translate(250.408402, 277.609976)"><g><path d="M 0.4375 -19.273438 C 0.4375 -17.882812 1.394531 -16.75 2.722656 -16.488281 C 2.917969 -16.335938 2.941406 -16.117188 2.941406 -15.921875 C 2.941406 -15.375 2.613281 -14.917969 2.332031 -14.765625 C 2.070312 -14.636719 1.808594 -14.703125 1.808594 -14.550781 C 1.808594 -14.332031 2.308594 -14.199219 2.59375 -14.199219 C 4.8125 -14.199219 6.121094 -16.75 6.121094 -18.644531 C 6.121094 -20.867188 4.855469 -22.105469 3.289062 -22.105469 C 1.699219 -22.105469 0.4375 -20.84375 0.4375 -19.273438 Z M 0.4375 -19.273438 "/></g></g></g><g fill="#ab8262" fill-opacity="1"><g transform="translate(256.962216, 277.609976)"><g><path d="M 0.328125 -10.890625 C 0.328125 -6.621094 4.921875 -5.226562 8.449219 -5.226562 C 10.105469 -5.226562 11.390625 -5.511719 12.195312 -5.511719 C 12.785156 -5.511719 13.113281 -5.359375 13.113281 -4.835938 C 13.113281 -3.703125 11.542969 -2.832031 10.039062 -2.832031 C 6.054688 -2.832031 3.832031 -5.707031 2.527344 -5.707031 C 1.632812 -5.707031 0.4375 -2.570312 0.4375 -1.632812 C 0.4375 -0.523438 4.769531 0.328125 7.753906 0.328125 C 10.214844 0.328125 14.289062 -0.914062 14.289062 -4.945312 C 14.289062 -9.148438 9.996094 -10.28125 6.140625 -10.957031 C 4.3125 -11.28125 2.851562 -11.71875 2.851562 -12.785156 C 2.851562 -13.875 3.832031 -14.289062 4.59375 -14.289062 C 7.316406 -14.289062 9.410156 -9.996094 12.304688 -9.996094 C 13.089844 -9.996094 14.332031 -11.5 14.332031 -12.960938 C 14.332031 -14.222656 11.171875 -15.574219 7.339844 -15.574219 C 4.050781 -15.574219 0.328125 -14.527344 0.328125 -10.890625 Z M 0.328125 -10.890625 "/></g></g></g></svg>